<svg width="103" height="11" viewBox="0 0 103 11" fill="none" xmlns="http://www.w3.org/2000/svg">
<path d="M9.05985 5.13129C9.05985 7.40063 7.34716 9.13129 5.36478 9.13129C3.38239 9.13129 1.66971 7.40063 1.66971 5.13129C1.66971 2.86194 3.38239 1.13129 5.36478 1.13129C7.34716 1.13129 9.05985 2.86194 9.05985 5.13129Z" fill="#21406C" stroke="#21406C" stroke-width="2"/>
<path d="M27.5936 5.13129C27.5936 7.40063 25.8809 9.13129 23.8985 9.13129C21.9161 9.13129 20.2034 7.40063 20.2034 5.13129C20.2034 2.86194 21.9161 1.13129 23.8985 1.13129C25.8809 1.13129 27.5936 2.86194 27.5936 5.13129Z" stroke="#21406C" stroke-width="2"/>
<path d="M46.1273 5.13129C46.1273 7.40063 44.4146 9.13129 42.4322 9.13129C40.4498 9.13129 38.7372 7.40063 38.7372 5.13129C38.7372 2.86194 40.4498 1.13129 42.4322 1.13129C44.4146 1.13129 46.1273 2.86194 46.1273 5.13129Z" stroke="#21406C" stroke-width="2"/>
<path d="M64.661 5.13129C64.661 7.40063 62.9483 9.13129 60.9659 9.13129C58.9836 9.13129 57.2709 7.40063 57.2709 5.13129C57.2709 2.86194 58.9836 1.13129 60.9659 1.13129C62.9483 1.13129 64.661 2.86194 64.661 5.13129Z" stroke="#21406C" stroke-width="2"/>
<path d="M83.1947 5.13129C83.1947 7.40063 81.4821 9.13129 79.4997 9.13129C77.5173 9.13129 75.8046 7.40063 75.8046 5.13129C75.8046 2.86194 77.5173 1.13129 79.4997 1.13129C81.4821 1.13129 83.1947 2.86194 83.1947 5.13129Z" stroke="#21406C" stroke-width="2"/>
<path d="M101.728 5.13129C101.728 7.40063 100.016 9.13129 98.0334 9.13129C96.051 9.13129 94.3383 7.40063 94.3383 5.13129C94.3383 2.86194 96.051 1.13129 98.0334 1.13129C100.016 1.13129 101.728 2.86194 101.728 5.13129Z" stroke="#21406C" stroke-width="2"/>
</svg>
